<svg id="Layer_1" data-name="Layer 1" xmlns="http://www.w3.org/2000/svg" viewBox="0 0 432 655.52"><defs><style>.cls-1{fill:#fff;}.cls-2{fill:#231f20;}</style></defs><path class="cls-1" d="M8,7.08c66.16,93.38,73.08,38.08,115.53,54.6s28.5,38.09,9.06,60.84-21.58,65,2.14,56.68,32.06-24.24-6.32-26.31-65.45,10.58-59.13,43,17.4,65.68,51.5,67.06,67.49,16.62,72.37,33.24c2.24,7.72,2.75,23-34,36.31-21.68,7.81-72-6.24-97.81,1.48-24.43,7.32-25.15,36.3-25.55,44.51C34.33,410.38,85.12,435.9,107.42,438s70.43-25.62,70.33-36.7-21.68-27.69-35.52-14.54-3.46,44.32,28.5,62.22,50.79,52.14,45.19,70.53c-15.16,50.65-81.63,34.43-100.06,0S62.73,488,53.47,508.21s-3.87,53.12,20,74.09,62.4,30.66,114,21,71.66-93.58,106.27-84.58,42.34,49.36,36.24,67.37-49.27,7.52-36.24-12,94.77-41.15,107.79,2.27,22.3,71.52,22.3,71.52"/><path class="cls-2" d="M1.35,10.84C14.28,29,28.33,48.13,47,61.19c9.27,6.53,20.36,10.28,31.86,9.1a115.2,115.2,0,0,0,14.25-2.67c1.94-.4,3.87-.89,5.81-1.19.61-.1,4.07-.59,1.73-.3a26.42,26.42,0,0,1,4-.29c5.9-.2,8,.09,13.94,2,8.35,2.68,19.75,7.52,23.92,15.73,2.55,5,.71,10.88-2.65,16.72-4.88,8.61-12.11,15.43-17.6,23.54-9.67,14.25-17.72,37.89-9.17,54.31,9,17,32,7.91,43-2.08,5.5-4.94,8.55-12.56,4.27-19.29-5.09-7.81-16.49-9.49-25-10.48C114.74,144,89.3,145.07,73,159c-16.9,14.54-12.52,36.3-7.53,55.1,5.19,19.48,14.25,41.54,34,51.14,11.3,5.44,23.1,4.65,35.22,6.63,13.13,2.17,26.36,6,37.76,13,6.31,3.85,12,8.5,13.84,15.62.41,1.59-.1-1.78,0-.09,0,.49.1,1,.1,1.58a7.88,7.88,0,0,1-.1,1.58c-.1,1.88.41-1.58-.1.3-.81,2.87-1.22,4.05-3.16,6.33-6.41,7.71-17.4,12.66-26.87,15.63-8.34,2.67-17.71,2.08-26.36,1.58-21.89-1.19-44.69-5.74-66.47-1.38-20.25,4.05-31.25,21-34.1,39.86-1.12,7.32-1.83,14.84-.3,22.16,1.83,9.1,7.33,17.31,13.64,24.23,13.13,14.35,32,24.83,50.69,30.57,7.63,2.38,15.27,3.56,23.31,2.38,9.67-1.39,18.93-4.85,27.79-8.81A143,143,0,0,0,169,422.44c6-4.35,13.23-9.59,15.67-16.71,2.75-8-2.74-16.82-8.75-22.06-7.74-6.83-18.83-11.08-29.21-7.72-21,6.63-20.67,30.77-12.83,46.79,5,10.19,13.13,18.89,22.19,25.82,10,7.52,21.07,12.86,30.13,21.56,11.6,11.18,27,31.46,22.5,47.88-4.28,15.33-17,25.92-33,26.71-15.48.79-31.56-5.44-43-15.73-6.61-6-9.87-13.35-15-20.48-6.41-8.7-14.56-15.82-24.94-19.68-16-5.94-35.73-1.19-44.58,13.75-10.89,18.1-7.23,42.63,1.32,60.74,9.57,20.18,27.89,34.52,48.76,42.73,22.9,9.1,48.65,10.39,73,7.62,11.4-1.29,22.6-2.87,33-7.62,8.14-3.76,15.57-9.4,22-15.43,13-12.17,23.21-27,34-41.15a125.13,125.13,0,0,1,13.95-16c4.17-3.86,7.83-6.43,12.92-7.42,2-.39-1.52,0,.61,0h2c2.14,0-1.42-.39.71.1a21.78,21.78,0,0,1,2.65.69,42.29,42.29,0,0,1,13,6.43,45.4,45.4,0,0,1,14.55,20.38,58.59,58.59,0,0,1,3.57,23.64,28,28,0,0,1-1.53,7.42c-.31,1-2.14,2.48-4.17,3.07a21.43,21.43,0,0,1-17.21-2.67c-3.15-2.18-2.85-4.75-.4-7.32a22.14,22.14,0,0,1,5.09-4.25,70.09,70.09,0,0,1,8.55-4.75,105.28,105.28,0,0,1,22-7.22c14.25-3.17,31.66-4.46,44.48,2,5.6,2.87,10,6.83,12.42,12.57,2.55,6,4,12.66,5.91,18.89,2,6.73,4.17,13.55,6.21,20.28,3.66,11.67,7.32,23.44,11.19,35.12,2.95,9.1,17.71,5.14,14.76-4q-6-18.25-11.6-36.5c-3.87-12.47-6.92-25.52-11.71-37.79a39.48,39.48,0,0,0-14.86-18.79c-13.13-9-30.94-10.29-46.41-8.51s-31.46,5.93-45.1,13.75c-11.5,6.53-24,19.78-14.55,33,8.55,12.07,30,15.43,42.34,7.22,13.64-9,11.4-30.86,7.64-44.22-5.09-18.4-17.61-34.23-36.14-41.05-14.66-5.44-27.38-.3-38.07,9.89-11.7,11.18-20.56,25.23-30.53,37.89-9.78,12.46-21.18,25.42-36.24,32-9.77,4.25-21.27,5.24-31.76,6-12.32,1-24.94,1-37.15-1-20-3.26-39.8-11.27-53.54-26.21C60.39,557.47,53.37,535,59.37,515.73c4.07-13.16,17.41-18.11,30.44-12.27,9.56,4.25,15.37,12.46,20.35,21.07a64.41,64.41,0,0,0,16,18.2c26.56,20.68,71,25.62,91.1-6.23,4.58-7.22,7.83-15.83,7.73-24.34-.2-9.39-3.56-18.59-7.94-26.9a103.85,103.85,0,0,0-20.66-26.61,110.76,110.76,0,0,0-14.66-11.58c-5.09-3.46-10.69-6.13-15.67-9.89-8.05-6-15.27-14-19.24-23.24-2.65-6.33-3.87-13.95-.71-19.1,3.86-6.52,12.41-6,18.52-1.28a22.56,22.56,0,0,1,3.56,3.36c1,1.19,1.43,3.37,2.34,4.26,1.53,1.48-1.52.39.31-.6.41-.2-1.63,2.38.1,0-1.42,1.88-.61,1.39-1.83,2.67-11.2,11.77-28.2,20.08-43.67,24.93a62.42,62.42,0,0,1-11.4,2.67,26.12,26.12,0,0,1-9-.39,91.52,91.52,0,0,1-23.2-8.31c-15.17-7.62-33.39-19.69-37.46-36.9-1.22-5.34-.41-12.46.41-17.11,1.22-7,3.36-14.45,8.34-19.89,6-6.62,14.76-8.31,23.41-8.7,11-.59,22,.39,32.88,1.28s21.68,2.08,32.47,1.88c11-.09,20.16-2.47,30.13-6.92,14.25-6.33,30.95-17.61,30-34.72-1-18.9-20.66-29.88-36.75-36.11a138.72,138.72,0,0,0-40.61-8.9c-10.08-.69-18.73-2.47-26.16-9.6-7.33-6.92-11.71-15.82-14.86-24.73-3.46-9.79-6.62-20.57-7.63-30.86-.72-7.42.71-14.74,6.31-20.18,6-5.74,14.65-8.11,22.69-9.49a102,102,0,0,1,32.48.09,35.09,35.09,0,0,1,7,1.78c2.75,1.09-.82-.39,1.53.7.2.1,2.34,1,.91.49.41.1.41.2.1-1,.41,1.49,0-.59.11-.39-.21.79-.21.69.2-.2-.2.39-.41.69-.61,1.09-1.43,1.68,1.12-1.09-.51.59a13,13,0,0,1-1.73,1.58,31.4,31.4,0,0,1-3.67,2.38,43.38,43.38,0,0,1-11.09,4.55c-.61.2-.81.1-2.14-.2,1.73.49-.91-.69.41.3-.2-.1-1.43-1.69-.71-.5a12.71,12.71,0,0,1-2.24-7.32c-.51-8.51,1.73-17.41,5.29-25.12,4.17-9.1,11.2-16,17.1-24,10.28-13.85,16.9-31.36,3.77-45.8-7.13-7.92-17.92-13-28-16.42a52,52,0,0,0-17-2.87c-9.16,0-18,2.77-27,4.45-1.93.4,1,0-1.63.2a23.3,23.3,0,0,1-2.64.1c-1.12,0-2.14,0-3.26-.1a9.08,9.08,0,0,1-1.63-.2c2.24.3-.41-.1-.81-.2-1.22-.29-2.34-.59-3.57-.89-.5-.2-3.25-1.18-1.83-.59a49.69,49.69,0,0,1-8.65-4.85C38.91,37.64,26,19.44,14.59,3.32,9-4.5-4.25,2.92,1.35,10.84Z"/></svg>