<svg id="Layer_1" data-name="Layer 1" xmlns="http://www.w3.org/2000/svg" viewBox="0 0 554.5 676.98"><defs><style>.cls-1{fill:none;stroke:#231f20;stroke-miterlimit:10;stroke-width:6px;}</style></defs><path class="cls-1" d="M212.5,0C97.92,152.45,88,184.33,94.93,230.16S204.53,301.9,285.24,279s-34.87-84.7-39.85-91.67-68.75-31.89-115.58,4-36.28,34.88-36.58,65.77,109.31,52.8,132.23,36.86,49.82-93.66,9-104.62-31.33-8-31.33-8-12.52-5-27.46,14.95-8,52.8,0,64.76,21.92,9,69.75,46.83,121.55,33.88,126.54,82.7-3.19,71-39.64,120.69S222.92,529,173.21,445,38.44,372.08,28.5,401.91-.22,509.06,57.22,546.62s75.57,80.65,209,84,181-57.44,154.44-50.82-13.26,24.31,18.78,37.56,21-16.57,53-8.83,22.09-14.36,35.35-6.63,30.93,6.63,37.56,15.46S477,648.26,450.49,646.05s-29.82-8.84-23.2-13.26-2.21,11.05,21,26.51,89.48,18.78,105,0,12.48-25.41,12.48-25.41" transform="translate(-14.45 1.8)"/></svg>